<svg xmlns="http://www.w3.org/2000/svg" viewBox="0 0 1280 853" role="img" aria-label="Senior couple in a warm premium home kitchen using the H001 countertop appliance for daily warm water routines">
  <defs>
    <linearGradient id="bg" x1="0" x2="1" y1="0" y2="1"><stop offset="0" stop-color="#f4efe6"/><stop offset="0.55" stop-color="#e4d1ba"/><stop offset="1" stop-color="#c2a17d"/></linearGradient>
    <linearGradient id="wood" x1="0" x2="1"><stop offset="0" stop-color="#e9d7bf"/><stop offset="1" stop-color="#b98d61"/></linearGradient>
    <linearGradient id="device" x1="0" x2="1" y1="0" y2="1"><stop offset="0" stop-color="#22262b"/><stop offset="1" stop-color="#050607"/></linearGradient>
    <linearGradient id="gold" x1="0" x2="1" y1="0" y2="1"><stop offset="0" stop-color="#e7ca88"/><stop offset="1" stop-color="#b48643"/></linearGradient>
    <filter id="shadow" x="-20%" y="-20%" width="140%" height="150%"><feDropShadow dx="0" dy="24" stdDeviation="26" flood-color="#3a2c22" flood-opacity="0.22"/></filter>
    <radialGradient id="light" cx="48%" cy="38%" r="64%"><stop offset="0" stop-color="#fffaf0" stop-opacity="0.82"/><stop offset="1" stop-color="#fffaf0" stop-opacity="0"/></radialGradient>
  </defs>
  <rect width="1280" height="853" fill="url(#bg)"/>
  <rect y="536" width="1280" height="317" fill="url(#wood)"/>
  <rect x="74" y="82" width="1132" height="454" rx="30" fill="#fff7eb" opacity="0.38"/>
  <rect x="112" y="126" width="1056" height="52" rx="26" fill="#9b6c42" opacity="0.20"/>
  <rect x="172" y="214" width="286" height="220" rx="18" fill="#d2b28b" opacity="0.42"/>
  <rect x="824" y="206" width="260" height="210" rx="18" fill="#b99064" opacity="0.26"/>
  <circle cx="1096" cy="252" r="66" fill="#6b8a63" opacity="0.26"/>
  <path d="M1068 348c18-88 48-142 91-176 18 76 4 138-40 184" fill="#637d5d" opacity="0.76"/>
  <path d="M1135 358c-10-84 8-146 50-184 28 72 18 138-30 190" fill="#7b936c" opacity="0.68"/>
  <ellipse cx="640" cy="548" rx="560" ry="152" fill="url(#light)"/>

  <!-- H001-style appliance -->
  <g filter="url(#shadow)" transform="translate(544 250)">
    <rect x="0" y="0" width="178" height="336" rx="22" fill="url(#device)"/>
    <rect x="54" y="30" width="72" height="268" rx="9" fill="url(#gold)"/>
    <rect x="66" y="60" width="48" height="62" rx="5" fill="#263b54"/>
    <rect x="78" y="140" width="24" height="96" rx="12" fill="#111315"/>
    <path d="M90 156v50" stroke="#d9b66b" stroke-width="8" stroke-linecap="round"/>
    <path d="M90 156l-18 18M90 156l18 18" stroke="#d9b66b" stroke-width="8" stroke-linecap="round"/>
    <rect x="26" y="306" width="126" height="22" rx="11" fill="#0c0d0f"/>
  </g>

  <!-- Senior woman -->
  <g filter="url(#shadow)" transform="translate(198 186)">
    <circle cx="140" cy="72" r="46" fill="#d3a17b"/>
    <path d="M94 76c4-56 42-88 94-72 38 12 52 44 48 80-32-18-78-18-142-8Z" fill="#e9e5dd"/>
    <path d="M72 180c18-54 58-86 112-86 64 0 106 44 124 118l30 176H42l30-208Z" fill="#d5b991"/>
    <path d="M70 216c56 34 130 34 238-4l18 110H52l18-106Z" fill="#6f7d75" opacity="0.94"/>
    <path d="M286 214c66 42 106 94 126 160" fill="none" stroke="#d3a17b" stroke-width="30" stroke-linecap="round"/>
    <circle cx="424" cy="384" r="22" fill="#d3a17b"/>
    <rect x="110" y="384" width="54" height="170" rx="18" fill="#665a53"/>
    <rect x="190" y="384" width="54" height="170" rx="18" fill="#665a53"/>
  </g>

  <!-- Senior man -->
  <g filter="url(#shadow)" transform="translate(792 174)">
    <circle cx="140" cy="82" r="48" fill="#c58d67"/>
    <path d="M92 80c8-56 48-86 102-70 36 11 54 40 54 78-34-22-82-24-156-8Z" fill="#d9d6cf"/>
    <path d="M70 194c28-64 78-96 136-82 60 14 98 66 104 136l14 152H52l18-206Z" fill="#f1e5d8"/>
    <path d="M80 236c46 30 122 34 230-4l10 116H62l18-112Z" fill="#3e4448" opacity="0.94"/>
    <path d="M68 226c-52 40-82 88-94 144" fill="none" stroke="#c58d67" stroke-width="30" stroke-linecap="round"/>
    <circle cx="-28" cy="380" r="21" fill="#c58d67"/>
    <rect x="110" y="394" width="54" height="160" rx="18" fill="#4b4d50"/>
    <rect x="190" y="394" width="54" height="160" rx="18" fill="#4b4d50"/>
  </g>

  <!-- Tea and water routine props -->
  <g transform="translate(694 548)" filter="url(#shadow)">
    <path d="M22 28h72l-12 132H34L22 28Z" fill="#cdeef4" opacity="0.68" stroke="#fff" stroke-width="5"/>
    <rect x="32" y="88" width="50" height="62" fill="#6fc6d9" opacity="0.42"/>
  </g>
  <g transform="translate(432 570)" filter="url(#shadow)">
    <ellipse cx="90" cy="60" rx="94" ry="24" fill="#9f784e" opacity="0.24"/>
    <rect x="36" y="0" width="104" height="70" rx="12" fill="#f4e7d8"/>
    <path d="M140 24h34c20 0 20 32 0 32h-34" fill="none" stroke="#caa781" stroke-width="8"/>
    <rect x="72" y="-18" width="32" height="20" rx="10" fill="#caa781"/>
  </g>
</svg>
